<?xml version="1.0" encoding="utf-8"?>
<!-- Generator: Adobe Illustrator 25.3.1, SVG Export Plug-In . SVG Version: 6.00 Build 0)  -->
<svg version="1.1" id="Layer_1" xmlns="http://www.w3.org/2000/svg" xmlns:xlink="http://www.w3.org/1999/xlink" x="0px" y="0px"
	 viewBox="0 0 2559.7 1705.8" style="enable-background:new 0 0 2559.7 1705.8;" xml:space="preserve">
<style type="text/css">
	.st0{fill:#82267C;}
	.st1{fill:#131034;}
	.st2{fill:#D74474;}
	.st3{fill:#66237D;}
	.st4{fill:#371866;}
	.st5{fill:#A72F78;}
</style>
<g>
	<path class="st0" d="M2559.5,606c0,32.7,0,65.3,0,98c-8.6,0.1-15.4,3.9-20.9,10.2c-12.9,14.8-31.2,11.8-47.7,14.4
		c-3.7,0.6-8.3-4.1-11.5,1.3c-2.8,4.7-0.8,9.1,2.6,12.7c8.2,8.9,4.9,13.6-4.1,20.3c-16.1,12.1-40.6,20.1-30.8,49.1
		c0.9,2.7-0.5,6.9-2.1,9.5c-7.3,12-8.4,26.3-26.7,32.9c-23.6,8.5-20.8,34.4-22.5,55.4c-0.7,8.8,3.9,14,13,14
		c14.1,0.1,23.4,9.5,32.4,17.8c11.4,10.5,7.5,24.6-6.7,30.3c-6.5,2.6-11.9,6-12.7,13.8c-1,9.2-2.3,18.5-3.4,27.7
		c-1.1,9.1,3.9,15.7,10.2,20.4c5.6,4.3,9.3-2.3,13.5-5.2c8.8-6.1,19-5.5,26,0.8c7,6.4,0,14.1-4.1,20.3c-2.6,3.9-6,7.1-6.4,12.1
		c-0.7,7.6-6.1,11-12.5,12.5c-7.3,1.7-9.6-4.3-12.1-9.4c-2.9-5.8-7-9.7-11.4-2.1c-5.7,9.7-12.6,18.6-18.3,28.3
		c-7,11.8-5.7,30.3-24.4,33.9c-5.8,1.1-13.3,2.3-13.4,9.7c-0.1,8.2,8.2,8.6,14,10.3c19.5,5.6,37.1,14.4,52.9,27.2
		c5,4.1,6,8.6,2.7,14c-3.2,5.1-8,6.5-12.9,3.4c-6.7-4.4-12.1-2.4-18.5,0.9c-14.2,7.4-19.6,3-20.8-12.7c-0.9-12.7-1.5-28-21.7-25.7
		c-4.5,0.5-9.7-0.6-11.8-5.8c-3.4-8.5-8.3-11.9-17.9-8.5c-10.4,3.7-11.7,9.9-10.7,20.1c1.9,21.6,7.4,45.2-20.4,57
		c-4.3,1.8-7.9,7.5-9.9,12.2c-11.6,27.6-29.9,44.8-62,42.7c-4.9-0.3-9.8,1.6-14.8,2c-19.8,1.7-39.2,16.1-42.3,35.4
		c-4,25-19.4,39.9-39.1,52.3c-14.5,9.2-23.5,21.3-22.2,39.4c0.4,5.6,0.5,11.4-0.8,16.8c-7.4,31.6,2.8,57.8,22.9,82
		c9.6,11.6,14.9,26.4,7.2,40.7c-8.2,15.2-12.5,29.5-6.9,46.6c3.6,11.1-6.4,23.5-15.1,19c-12.9-6.7-23.4-1.8-35,1.9
		c-16.2,5.2-32.2,7.3-49.9,5.1c-15.5-1.9-34.3-2.1-39.5,21.1c-2.3,10.1-8.4,19.5-13.3,29c-3.9,7.5-10.2,10.8-18.3,6.6
		c-10.6-5.5-18-14.4-19.3-26.3c-1.2-11.3-6.9-19.8-12.6-28.8c-15.8-24.8-41.9-31.5-67.5-38.8c-30.8-8.7-57.4-24.7-79.8-46.9
		c-20.6-20.3-40-41.9-58-64.4c-16.1-20.2-37-37.8-40.4-66.2c-1-8-2.8-17.7-9.8-22.5c-19.2-13-31.8-32-47.3-48.3
		c-3.7-3.8-7.7-6.5-13.3-4.2c-11.6,4.8-20.7,0.2-28.8-7.9c-8.6-8.7-15.6-20.7-26-25.9c-39-19.7-72.6-46.5-106.2-73.8
		c-22.9-18.6-42.7-42.4-73.5-49.6c-1.9-0.5-3.6-3.6-4.7-5.9c-7.1-14.3-14.2-28.8-30.8-34.4c-17.2-5.8-29.8-17.5-37.6-32.7
		c-19.6-38-55.6-53.9-91-71.1c-6.8-3.3-14.5-7.2-20.8,1c-6.3,8.2-4.3,17,1.2,24.1c22,28.3,23,65.3,40.1,95.5
		c2.1,3.7,2.4,8.4-2.9,9.8c-5.7,1.5-7.6-3-8.3-7.6c-1-7.5-3.6-14-11.5-15.8c-21.2-5.1-39-13.5-53.6-31.8
		c-13.8-17.3-34.7-28.7-48-47.4c-10-14.1-20.9-27.3-34-39c-28.4-25.4-56-51.7-83.4-78.1c-27.8-26.7-54.8-54.1-82.5-80.8
		c-21.2-20.4-45.8-37.9-58.7-65.6c-7.2-15.6-16.1-28.8-33.1-35.2c-8.1-3.1-14.4-9.8-19.1-17.2c-18-28.2-43.3-50.5-67.4-72.3
		c-41.1-37.4-81.5-75.5-122-113.5c-39.7-37.3-81-72.9-120.9-110c-13.1-12.2-32.7-17.9-38.4-37.8c-4.9-17.2-10.3-34.4-15.3-51.6
		c-3.5-11.9-3.1-22.9,4.3-34.1c7.7-11.6,8.5-25.9,7.3-39.6c-0.7-7.9-4.1-15.3-12.3-18c-14.6-4.9-28.5-10.8-41.4-19.5
		c-5.4-3.6-12-5.1-17.9-0.9c-5.6,4-3.9,10.1-3,15.7c1,6.2,2,13.3-6.8,13.5c-9.9,0.3-20.3,0.2-29.3-4.5
		c-45-23.3-81.7-54.8-101.9-102.7c-2.7-6.5-6.8-12.4-13.3-15.8c-15.1-7.7-26-20.7-38.9-31.2c-5.4-4.4-9.5-10.8-4.3-17.4
		c4.8-6.2,12-2.6,17.5-0.3c3,1.3,4.7,6,6.8,9.4c7.6,12.4,21.5,12.2,33.2,15.9c5.2,1.7,9-4.1,10.7-8.8c12.7-35.1,35.9-67.6,27.3-108
		c7.3,0,14.7,0,22,0c4.5,16,9.8,31.9,13.1,48.1c2.5,12.4,8.2,20.2,19.6,25.4c22,10.1,32.4,30.8,43.4,50.5c3.3,5.9,1,12.2-3.1,16.7
		c-8.6,9.4-6.5,18.8-1.3,28.5c15.9,29.4,41.2,47.1,72.4,56.6c8.7,2.7,15.8,6.5,18.1,15.2c8.8,32.5,17.1,64.9-0.6,97.7
		c-10.9,20.2-0.4,53.7,16,63.5c26.8,15.9,53.2,32.8,72,58.6c4.7,6.4,10.2,11.3,17.4,14.4c4.6,2,9.1,5.3,13.8,1
		c4.9-4.5,4.5-10.1,2.1-15.7c-6.4-14.4-14.8-27.5-25.6-39.1c-13.8-14.6-25.6-30.7-34.7-48.6c-6.8-13.5-1.9-21.8,13.1-21
		c13.9,0.8,27.8,2.8,41.6,4.9c7.4,1.2,13.9,4.9,18.5,11.1c20.3,27.5,41.8,54,63.5,80.5c38.7,47.4,79.9,91.9,124.9,133.4
		c35.8,33.1,76.6,61.2,105.9,101.1c8.9,12,15.5,26.7,26.7,35.8c36.6,29.9,72.1,61,106.2,93.7c33.8,32.4,73.6,58.3,103.2,95
		c28.4,35.2,67.1,57.3,102.5,83.5c32.2,23.8,68.8,42.2,89.5,79.4c5.6,10,16.2,15.9,27.3,20.9c27.2,12.3,54.5,24.8,75.8,46.9
		c14.1,14.6,28.5,28.8,43.4,42.5c39.3,36.1,92.4,50,133.8,83.4c18.3,14.8,38.8,26.5,52.4,46.6c6.4,9.4,15,16.2,25.6,19.9
		c14.2,4.9,23.3,14.5,29.1,28.1c8.6,20.1,16,41,33.7,55.9c9.2,7.8,23.3,8.6,30,17.2c16.3,21,41.9,25.1,62.4,38.2
		c9.7,6.2,16.5,1.7,15.6-10c-1.4-16.9-3.9-33.6-5.8-50.5c-0.4-3.2-1.1-8.5,0.3-9.2c4.1-2.1,6.1,2.7,8.5,5c9.7,9,18.6,19,32.6,21.5
		c-15.1-8.9-27.1-21.1-34.1-36.6c-7.1-15.8-18.2-26.6-32.9-33.2c-18.9-8.4-23.7-25.8-30.6-42.2c-2-4.7,1.9-4.1,5.2-3.9
		c16.8,1.2,32.4,7.9,49.2,10.2c29.6,4.1,44.6-1.3,59.3-26.8c2-3.4,4.3-6.7,7.1-9.5c36.2-35.5,59.7-79.2,80.3-124.6
		c8.2-18,0.7-31.6-17.8-38.3c-9-3.3-17.9-7.4-25.9-12.7c-16.1-10.7-32.8-18.6-52.4-20.2c-24.4-2-35.8-11.5-42-35.3
		c-6.9-26.4-23.9-45.9-46.2-58c-19-10.3-27.9-21.4-28.4-43.2c-0.9-37.4-19.6-70-33.7-103.6c-8-19.1-8.1-40.6-18.2-58.9
		c-5.6-10.2-4.8-19-0.8-29.3c5.5-14.3,14.6-28.1,13.2-44.1c-1.4-15.2-3.4-30.1,0.8-45.3c1.8-6.5,0.2-14.1-5-18.6
		c-15.3-13.3-16.3-28.9-12.8-47.9c3.3-17.9,3-37.9-10.7-51.8c-10.3-10.5-5.7-20.9-0.2-26.2c16.2-15.4,13.5-31.7,3-45.9
		c-9.5-12.8-19.9-25.3-29.8-38c-8.1-10.5-17.1-20.4-24.7-31.3c-13.1-18.8-10.2-35.4,3.9-53c18.3-22.7,39.6-43.4,63.7-57.7
		c32-19,64.2-38.9,100-51.5c18.1-6.4,19.7-18.9,5.4-31.8c-6.8-6.2-15-10.9-23-15.8c-22.7-14-30.2-51.9-14-72.9
		c4.7-6.1,6.6-11.3,3-19c-3.9-8.2-1.4-17.8,4.9-23.1c15.3-12.8,10.4-32.2,3.9-40.6c-12-15.5-7.5-30.7-9.2-46.2
		c129.3,0,258.6,0,387.9,0c-0.5,6.3-1.5,12.6-1.4,18.9c0.3,14.3-6.6,31.3,5.6,42c22.5,19.6,37.3,43.5,44.1,71.6
		c3.8,15.6,10,18.1,24.3,15.9c12-1.8,14.6-6.5,11.9-17.2c-7.2-28.8,13.1-52.2,42.2-48.9c21,2.4,31.9,18.3,33.4,43.9
		c1.3,22.2-12.9,24.8-28.8,27.2c-7.1,1.1-12.8-2.7-19.2-4.2c-7.3-1.8-16.7-4.5-21.6,1.5c-4,5,5,9.6,7.5,14.7
		c2.1,4.3,6.3,7.6,9.6,11.3c5.4,6.1,12.5,15.2,6.4,20.5c-9.1,7.9-18.1,25-35,10.9c-2.6-2.2-5.3-4.6-8.9-2.1c-3,2.1-4.7,5.8-3.2,8.8
		c7.9,15.8,2.3,37.4,21,48.7c2.2,1.3,3.9,4.8,4.4,7.6c2.7,16.4,14.2,21.2,28.5,22.8c7.4,0.8,15.5,1.6,18.5,9.6
		c10.8,28.8,16.3,58.3,8.7,89c-1.1,4.4-3,8.4-8.3,8.5c-19.9,0.5-35.1-12.8-38.7-33.2c-0.9-5.1,0.6-13.5-6.5-14
		c-6.7-0.4-7.2,7.6-8.8,12.8c-7.8,26.1-7,54.2-17.5,79.6c-6.2,14.9-2.3,21.1,13.5,21.9c9.8,0.4,16.5,5.9,17.6,15.9
		c1.4,14.1,1.5,28.4,2.8,42.5c0.8,9.1,2.8,20.3,13.7,20.3c15.4,0.1,31.2-1.8,46.1-5.9c9.8-2.7,15.6-3,22.3,5.4
		c13.7,17.4,40.9,20.5,61.1,10.6c13.2-6.5,34.4-10.8,40.1,2.4c8.9,20.4,34.5,22.6,39.6,44.2c1.2,5,4.5,9.5,7.1,14.1
		c4.7,8.3,12.9,11.6,18,3.3C2535.7,608.5,2548,609,2559.5,606z M261.8,150.2c-5.1,0.3-10.6,0.7-12.5,6.2c-2.7,7.7-1.7,16,3.9,21.5
		c16.1,15.9,28.4,35.8,49,46.9c6.4,3.5,13.6,9,19.6,1.7c5.5-6.7-1.2-12.7-5.7-17.1c-13.9-13.5-26.6-27.6-33.8-46.2
		C279.2,155,271.7,149.9,261.8,150.2z M2303.6,96.8c-15-0.1-17.6,5.6-12.3,19.5c5.6,14.4,23.4,4.5,29.2,16.7c1.3-0.9,3-1.6,3.7-2.8
		C2328.6,122.7,2312.4,96.8,2303.6,96.8z M1854.7,1368.5c-1.6,1.5-3.2,2.4-3.1,2.9c0.4,2.2,0.8,4.8,2.2,6.4c6,6.6,11.7,13.9,18.9,19
		c7.2,5.2,12.7,13.6,22.7,14.3c-1.4-10.1-10.3-15.1-16.1-21.8C1872.5,1381.5,1863.3,1375.6,1854.7,1368.5z M1930.1,1447.2
		c-5.3-8.8-13.3-16.1-23.2-21.4c-1.6-0.9-3.7-0.4-3.2,2c2,10.3,6.3,18.9,17.1,22.6c1.9,0.6,3.7,1.6,5.6,1.9
		C1929.5,1452.8,1930.8,1451.3,1930.1,1447.2z M2227,171.2c-4.1,8.9-4,13.4-2.1,17.7c0.2,0.4,2.1,0.2,3.2,0.2
		C2227.9,184.6,2227.6,180.2,2227,171.2z"/>
	<path class="st1" d="M0.2,1393.7c0-461.5,0-923-0.2-1384.4c0-7.5,1.6-9.8,9.2-9.2c10.3,0.8,20.6,0.2,31,0.2
		c3.5,11.9,8.4,23.6,5.2,36.6c-1.3,5.4,3.5,5.1,7.3,6.8c11.8,5.3,24.8,6.9,36.2,14.6c16.2,10.9,24.8,29,40,39.6
		c27.8,19.3,53.6,40.9,79.6,62.3c21.5,17.7,27.3,45.8,10.9,67.8c-5.5,7.4-11.9,10.7-12.9,22.8c-2.7,31.6-19,59.8-29.1,89.7
		c-5.4,16.1-7,34.6-16.2,48c-15.7,22.8-21,48-27.1,73.7c-3.9,16.4-5,34.7-16.2,47.6c-12.6,14.6-22.8,28.6-20,49
		c0.9,6.6,0.2,13.1-3.1,19.4c-11.1,20.8-26.5,40.2-23.2,66.1c0.2,1.8-1,3.8-1.7,5.7c-12.4,28.2-8.6,36.2,17.9,52.3
		c31.6,19.2,67.3,26.9,101.2,39.4c36.5,13.5,72.4,28.5,108.8,42.1c15.5,5.8,23.5,18.2,30.4,31.2c8.6,16.3,21,26.9,38.5,32.4
		c38.4,12.1,76.6,24.8,114.9,37.1c24.9,8,36.4,29.5,29.4,51.3c-8.5,26.3-1.3,51,14.1,72.6c9.7,13.7,15.2,28.7,18.6,44.3
		c3.1,14.2,7.4,26.8,19.3,35.9c15.3,11.7,31,23.1,39.2,41.6c2,4.5,6.6,7.7,11.6,8.9c41,9.7,81.7,22,124.8,14.5
		c7.8-1.4,12.5-5.3,15.2-12.5c7.1-19.2,37.2-38.1,57.5-33.2c20.8,5,41.2,12.6,61.1,20.9c10.3,4.3,13.6,16.3,10.3,25.8
		c-4,11.4-1.6,23.5-5.4,33.9c-4.4,12.2,0.3,25.7-6.9,37.5c6.6,1.6,14,5.4,21.1,4.9c35.8-2.4,71.5-6,107.2-9.2
		c3.8-0.3,8.5,0.2,6.7-6.7c-3.2-12.8,1.1-24.8,10.3-32.4c18.6-15.4,39.3-28.1,58.1-43.2c10.2-8.2,20.2-6.8,28.1-0.3
		c8.5,7,7.6,17.9,2.1,27.5c-4.4,7.8-9,15.5-10.8,24.5c-1,5-4,8.8-9,9.7c-7.2,1.2-10.5,4.6-9.8,12.1c0.3,3.2-0.7,7.1-4.8,7.8
		c-4.6,0.8-5.2-3.1-5.9-6.4c-1.6-7.4-5.3-7.8-11.5-4.3c-7.7,4.3-15.9,7.8-24.2,11c-2.5,1-6.5-0.7-6.6,3.8c-0.1,3.3,2.3,5.5,5.4,6.4
		c12.4,3.7,22.5,14,37.4,11.6c6-1,10.3,5.7,12,11.8c2.3,8.7,4.2,17.5,5.6,26.3c2.4,14.4,3.8,29.2,13.4,41.3
		c7,8.9,11.5,19.7,7.9,29.9c-16,44.8,4,91.6-8.6,136.4c-0.9,3.2,0.8,7.2,1.3,10.8c0.6,4.2,1.9,8,6.6,8.9c5.1,1,8.4-2.1,10.1-6.4
		c6.7-17.5,20.2-25.7,38-28c5.5-0.7,11.4-2.7,12.8-8.2c4.5-17.5,19.9-23.6,32.8-31.6c8.1-5.1,22.1-2.6,10.8-19.9
		c-4.6-7.1,2.1-19.7,1.3-30.7c-1.2-16.9-11.4-30-13.9-46.1c-2.3-14.7-21.5-29.4,1.9-43.1c2.8-1.6,4-6,5.8-9.2
		c7.3-13.1,19.1-22.2,33.2-22c15,0.2,30.2,5,44.8,9.4c12.7,3.8,16.5,14.1,15.2,26.9c-1,10.4-2.5,21-1.6,31.3
		c2.6,30.5,6.8,60.8-8.2,90c-3.7,7.2-6.9,17.5,0,25.7c22.6,27.2,21.2,58.6,20.1,91.5c-2,55.9-4.5,112.1,2.4,167.9
		c-432.9,0-865.8,0-1298.6,0.2c-7.5,0-9.2-1.7-9.2-9.2c0.3-83.6,0.2-167.3,0.2-250.9c19.1-4.9,26.1-17,21.2-36
		c-0.4-6.9-3.8-10-10.8-8.4C8.2,1397.3,4.5,1395.1,0.2,1393.7z M239.8,996.9c1.5,1.3,3.1,2.5,4.6,3.8c0.8,6.3,4.4,11,8.8,15.3
		c3,2.9,7,2,6-1.7c-2.7-10.3,4.3-18.5,4.6-27.9c0.9-27.2-0.7-52.9-20.7-75.6c-12.7-14.4-29.9-15-44.3-23.3c-0.3-0.2-2.9,2.1-2.8,2.8
		c4.2,15.9-6.6,28.6-9.1,43.1c-2.2,13,1.4,27,9,34.5c9.4,9.4,22.2,16.2,32,26C231.2,997.2,234.6,1001,239.8,996.9z M335.4,1255.2
		c12.5,0.2,31.8-14.2,29.9-22.5c-3.9-17.8-22.3-13.6-33.8-17.2c-9.8-3.1-9.8,12.1-9.8,18.8C321.9,1243.3,324.8,1253.8,335.4,1255.2z
		 M817.6,1277.4c4.6-2.7,13.1,0.3,15.5-8.2c1.1-3.8-2.1-5.6-5.4-5c-6.3,1.3-11.9,4.5-15.4,9.8
		C810.6,1276.8,814.3,1277.3,817.6,1277.4z"/>
	<path class="st2" d="M838,0.3c206.6,0,413.2,0,619.8,0c1.2,4.1,1.4,8.8,3.7,12.2c12.1,17.4,24.2,34.9,37.3,51.6
		c11.1,14.2,13.9,34,4,48.7c-15.6,23.2-14.8,47.7-5.2,72.1c4.1,10.3,4.6,18.8-0.3,28.4c-9.3,18-21.6,34.7-27,54.4
		c-5,18-14.1,35.3-5.7,55.9c4.2,10.4,8.8,22.4,7.2,34.8c-4.5,36.1,14.8,62.3,35.4,88.6c11.9,15.2,25.5,31.2,30.6,49
		c6.1,21.5,9.1,45.1,4.5,68.2c-3.9,19.9-7.4,42.9,2.8,58.6c14.1,21.7,9.5,41.6,6.8,62.8c-1.8,14.1-12.2,20.9-24.9,24
		c-9.4,2.2-19,3.1-28.5,4.7c-12,1.9-18.3,9.1-18.4,21.2c-0.1,22.8,6.8,32.3,28.8,38.1c11.5,3.1,18,9.4,19.1,21.2
		c1.4,14.9-1.6,29.3-6.7,43c-2.5,6.8-8.3,10.4-16.9,9.1c-13.3-2-21.5,3.9-23.8,17.8c-1.7,10,0.6,19.3,4,28.3
		c9.9,26.3,24.5,50.7,27.6,79.7c2,18.9-3.1,30.9-21.2,35.6c-21.8,5.6-36.4,27.2-26.8,42.7c8.7,13.9,10.6,27.3,10.3,43.2
		c-0.3,16-6.2,14.2-16.8,10.6c-39.7-13.7-74.4-37.1-110.6-57.5c-8.6-4.8-17.7-8.9-24.8-16.5c-13.2-14.1-25.8-29.2-41-40.6
		c-35.7-26.6-72.9-51.3-109.4-76.8c-14-9.8-27.9-19.9-36.8-34.7c-19-31.5-45.2-56.7-71.5-81.7c-42.3-40.3-82.5-82.6-124.9-122.9
		c-40.4-38.5-71.6-86-112.2-125.1c-36-34.7-66.4-75.2-101-111.6c-31.5-33.2-68.3-61.7-96.6-97.8c-30.3-38.8-76.2-55.1-113.8-83.2
		c-12.2-9.1-21.6-16.3-23.7-31.3c-0.5-3.6-2.3-6.9-3.3-10.5c-8.6-30.6-39.3-45.9-51.5-74c-3.1-7-9.1-12.2-15.4-16.8
		c-31.9-22.9-48.4-57-65.2-90.6c-5.1-10.2-4.1-20.4,11.6-21.9c6-0.6,11.8-3.1,12.5-10.8c134.6,0,269.3,0,403.9,0
		c0.1,14.7,0.1,29.5,9,42c9.8,13.8,25.3,14.6,39.5,12.3c11.9-2,10.9-15,10.7-24C843,20.4,839.8,10.4,838,0.3z M1173.1,771.6
		c2.2,3.3,1.8,8.1,6.3,9.9c7.1,13.2,18.7,22.5,29,33c2.7,3.4,5.5,6.8,8.2,10.1c5.4,8.3,12.5,14.6,22.2,19.9
		c-2.2-10.9-7.8-18.6-13.9-25.9c-8.4-7.9-7.8-21.7-18.1-28.4c-5.2-5-10.4-10.1-15.6-15.1c-3.2-2.9-6.4-5.7-9.7-8.6
		c-3.7-4.5-9.3-9.5-13.9-5.4C1163.6,764.7,1169,769.1,1173.1,771.6z M792.2,413.3c3.2,4,7.4,3.1,11.6,2.6c1.4,3.6,1.6,8.1,6.6,8.9
		c0.5,0.1,1.8-1.6,1.6-1.9c-5.8-10.8-0.5-23.6-7-34.7c-11.8-20.2-27.2-37.7-41.1-56.3c-5.1-6.9-13.1-12.3-21.7-2.9
		c-2.7-0.1-5.3-0.2-8-0.2c-8.2,3.8-8.4,16.6-0.3,27.6c8.8,12.1,16.6,25.2,27,35.7C769.7,400.9,778.2,411.7,792.2,413.3z
		 M1011.5,126.6c-11.1-0.6-14.8,5.2-15.4,14c-0.6,10.6,5.1,16.4,15.1,17.2c13.6,1.1,23.8-8.9,24.1-19.1
		C1035.9,123,1018.7,131.2,1011.5,126.6z M870.1,315.9c-0.9-10.6-7.1-15.7-16.4-15.6c-10.9,0.1-18.9,6.3-19,17.4
		c-0.1,8.7,4.5,17.8,14.8,17.9C862.1,335.7,868,326.9,870.1,315.9z"/>
	<path class="st3" d="M274.1,0.3c8.6,40.5-14.6,72.9-27.3,108c-1.7,4.7-5.6,10.5-10.7,8.8c-11.6-3.8-25.6-3.5-33.2-15.9
		c-2.1-3.3-3.7-8.1-6.8-9.4c-5.5-2.3-12.7-5.8-17.5,0.3c-5.2,6.6-1.1,13,4.3,17.4c12.9,10.5,23.7,23.5,38.9,31.2
		c6.6,3.3,10.6,9.3,13.3,15.8c20.2,47.9,57,79.5,101.9,102.7c9,4.7,19.4,4.8,29.3,4.5c8.8-0.2,7.8-7.3,6.8-13.5
		c-0.9-5.6-2.5-11.7,3-15.7c5.9-4.2,12.5-2.7,17.9,0.9c12.8,8.6,26.8,14.6,41.4,19.5c8.1,2.7,11.6,10.1,12.3,18
		c1.2,13.8,0.4,28-7.3,39.6c-7.4,11.3-7.8,22.2-4.3,34.1c5,17.2,10.4,34.3,15.3,51.6c5.7,19.9,25.3,25.6,38.4,37.8
		c40,37,81.2,72.7,120.9,110c40.5,38,80.8,76.1,122,113.5c24.1,21.9,49.4,44.1,67.4,72.3c4.7,7.4,11,14.1,19.1,17.2
		c17.1,6.5,25.9,19.6,33.1,35.2c12.9,27.7,37.5,45.2,58.7,65.6c27.7,26.7,54.8,54.1,82.5,80.8c27.5,26.4,55,52.8,83.4,78.1
		c13.1,11.7,24,24.8,34,39c13.3,18.7,34.2,30.1,48,47.4c14.6,18.3,32.4,26.7,53.6,31.8c7.9,1.9,10.5,8.4,11.5,15.8
		c0.6,4.6,2.6,9,8.3,7.6c5.3-1.4,5-6.1,2.9-9.8c-17.2-30.2-18.2-67.2-40.1-95.5c-5.5-7.1-7.5-16-1.2-24.1c6.3-8.2,14-4.3,20.8-1
		c35.4,17.1,71.4,33,91,71.1c7.8,15.2,20.4,26.9,37.6,32.7c16.5,5.6,23.7,20.1,30.8,34.4c1.1,2.2,2.8,5.4,4.7,5.9
		c30.8,7.3,50.6,31,73.5,49.6c33.6,27.4,67.2,54.1,106.2,73.8c10.4,5.3,17.3,17.2,26,25.9c8,8.1,17.1,12.7,28.8,7.9
		c5.6-2.3,9.6,0.3,13.3,4.2c15.6,16.3,28.1,35.4,47.3,48.3c7.1,4.8,8.9,14.5,9.8,22.5c3.4,28.4,24.3,46,40.4,66.2
		c18,22.6,37.5,44.2,58,64.4c22.4,22.1,49,38.2,79.8,46.9c25.6,7.2,51.7,14,67.5,38.8c5.8,9,11.4,17.6,12.6,28.8
		c1.3,11.9,8.7,20.8,19.3,26.3c8.1,4.2,14.4,0.8,18.3-6.6c4.9-9.4,11.1-18.8,13.3-29c5.2-23.2,24-23,39.5-21.1
		c17.7,2.2,33.7,0.1,49.9-5.1c11.5-3.7,22-8.6,35-1.9c8.7,4.5,18.7-7.9,15.1-19c-5.6-17.1-1.3-31.4,6.9-46.6
		c7.7-14.3,2.4-29.1-7.2-40.7c-20.1-24.2-30.2-50.4-22.9-82c1.2-5.4,1.2-11.2,0.8-16.8c-1.3-18.2,7.7-30.2,22.2-39.4
		c19.7-12.5,35.1-27.3,39.1-52.3c3.1-19.3,22.4-33.7,42.3-35.4c5-0.4,9.9-2.3,14.8-2c32,2.1,50.3-15.2,62-42.7
		c2-4.7,5.6-10.4,9.9-12.2c27.8-11.8,22.3-35.3,20.4-57c-0.9-10.2,0.4-16.4,10.7-20.1c9.5-3.4,14.4,0.1,17.9,8.5
		c2.1,5.2,7.3,6.3,11.8,5.8c20.3-2.2,20.8,13,21.7,25.7c1.2,15.7,6.6,20.1,20.8,12.7c6.4-3.3,11.8-5.3,18.5-0.9
		c4.9,3.2,9.7,1.7,12.9-3.4c3.4-5.4,2.3-9.9-2.7-14c-15.7-12.8-33.4-21.6-52.9-27.2c-5.8-1.7-14.1-2.1-14-10.3
		c0.1-7.4,7.6-8.6,13.4-9.7c18.7-3.6,17.4-22.1,24.4-33.9c5.8-9.7,12.7-18.6,18.3-28.3c4.4-7.6,8.5-3.7,11.4,2.1
		c2.5,5.1,4.9,11.1,12.1,9.4c6.4-1.5,11.8-4.9,12.5-12.5c0.5-5,3.9-8.3,6.4-12.1c4.1-6.2,11.1-13.9,4.1-20.3
		c-6.9-6.3-17.1-6.9-26-0.8c-4.2,2.9-7.9,9.5-13.5,5.2c-6.3-4.8-11.4-11.4-10.2-20.4c1.2-9.2,2.4-18.5,3.4-27.7
		c0.9-7.8,6.2-11.2,12.7-13.8c14.3-5.7,18.1-19.8,6.7-30.3c-9-8.3-18.4-17.8-32.4-17.8c-9.1,0-13.7-5.2-13-14
		c1.7-21-1.1-46.9,22.5-55.4c18.3-6.5,19.4-20.9,26.7-32.9c1.6-2.7,3-6.9,2.1-9.5c-9.8-29,14.7-37,30.8-49.1
		c9-6.8,12.3-11.5,4.1-20.3c-3.4-3.6-5.4-8-2.6-12.7c3.2-5.3,7.8-0.7,11.5-1.3c16.5-2.6,34.8,0.3,47.7-14.4
		c5.5-6.3,12.4-10,20.9-10.2c0,330.9,0,661.7,0.2,992.6c0,7.5-1.7,9.2-9.2,9.2c-262.9-0.2-525.9-0.2-788.8-0.2
		c-3.7-17.9-16.3-30.4-27.7-43.2c-43.1-48.1-79.4-102.5-129.2-144.4c-45.7-38.5-89.2-79.7-137.8-114.8
		c-12.8-9.2-26.9-18.2-37.2-29.3c-19.6-21.1-41.4-39.4-63.6-57.3c-35-28.2-67.3-58.2-87.4-99.3c-2.8-5.6-7.8-9-13.3-11.6
		c-16.3-7.6-31.8-16.5-44-30.1c-6.4-7.2-12-15.8-19.9-20.8c-31.2-20-59-43.7-84.9-70c-3.1-3.1-5.4-6.4-7.6-10.2
		c-10.3-17.5-20.4-35.6-36.6-48.2c-29.9-23.3-51.4-55.5-84.3-75.7c-18.5-11.3-29.9-31.3-46.5-44.9c-37.2-30.5-69.4-66.2-100.3-102.4
		c-22.5-26.4-47.4-50.3-71.1-75.2c-48.3-50.7-98.5-99.7-149.6-147.7c-24.3-22.9-52-42.2-78.8-62.4c-10.5-7.9-19.2-3.7-18,9.4
		c2.8,29.4-5.4,53.6-25.7,75.2c-7.7,8.2-8.5,21.4-1.8,32c8.6,13.4,11,27.8,9.2,43c-1.9,16.9,6.7,27.9,20.4,34.4
		c10.9,5.1,17.8,13.1,19.1,23.6c2.1,15.8,7.2,30,14.9,43.7c2.6,4.6-0.1,9.3-2.9,13c-4.7,6.2-6.1,13-6.2,20.6
		c-0.4,22.9-5.5,45.5-3.5,68.6c0.5,5.5-0.7,12.1-6.8,14.5c-6.1,2.4-9.2-3.8-13.2-7c-10.5-8.7-18.9-22.2-32.3-24.4
		c-39.8-6.5-76-24.3-115-32.8c-35.9-7.8-50.8-32.2-37.9-66.9c12.8-34.4,25.1-68.8,31.3-105.1c13.8-79.4,33.1-157.4,58.7-233.9
		c8-23.8,7.4-48.5-14.3-65.9c-17.5-14-31.8-31.4-45.7-47.9C347.3,282.3,316,261.7,283,244c-19-10.2-29.6-22.2-34.4-42.4
		c-3.3-13.9-11.4-26.6-21.2-36.8c-38.1-39.6-78.3-76.9-118.8-113.9C92.6,36.2,74.3,22.1,66.2,0.3C135.5,0.3,204.8,0.3,274.1,0.3z
		 M1385.1,1275c-2-20.3-1.8-40.2-24.5-47.5c-11.3-3.6-17.5-11-21.1-21.9c-2.2-6.6-5.4-12.9-8.6-19.1c-2.1-4.2-5.2-6.9-10.5-3.9
		c-16.1,9.2-25.8,43.2-15,57.9c15.2,20.5,34.8,36.7,57.8,47.8C1379.1,1296.1,1385.4,1291,1385.1,1275z M1612.2,1417.6
		c-4.1,3.7-18.6-6.2-14.6,6.3c4.6,14.3,8.5,29.9,18.5,42.5c5.8,7.3,12.3,11.7,21.4,7.8c8.9-3.8,14.5-11,13.9-21
		c-0.7-12.3-3.3-24.3-8.2-35.7c-1.8-4.2-4.1-8.9-9.3-4.5C1627.5,1418.3,1620.3,1417.5,1612.2,1417.6z M2469.4,1073
		c4.4,6.4-3.5,21.6,13.6,22.6c13.7,0.7,20.3-6.8,20.1-20c-0.3-17.2-16.9-11.5-25.6-16.1C2471.7,1056.3,2469.9,1065.3,2469.4,1073z
		 M418,707.5c-1.3,3.3-2.9,5.4-2.5,6.9c2.4,8.8,8.7,15.2,14.9,21.4c1.6,1.6,4.8-0.3,4.2-2.2C432.1,724.6,426.1,717.7,418,707.5z"/>
	<path class="st4" d="M66.2,0.3c8.2,21.8,26.4,35.9,42.4,50.6c40.5,37.1,80.8,74.4,118.8,113.9c9.9,10.3,18,22.9,21.2,36.8
		c4.8,20.2,15.3,32.2,34.4,42.4c33,17.7,64.3,38.3,89.5,68.2c13.9,16.5,28.2,33.9,45.7,47.9c21.7,17.4,22.2,42.1,14.3,65.9
		c-25.6,76.5-44.9,154.5-58.7,233.9c-6.3,36.3-18.6,70.7-31.3,105.1c-12.9,34.7,2,59.1,37.9,66.9c39,8.5,75.3,26.3,115,32.8
		c13.3,2.2,21.8,15.8,32.3,24.4c3.9,3.3,7,9.4,13.2,7c6.1-2.3,7.3-9,6.8-14.5c-2.1-23.1,3.1-45.7,3.5-68.6
		c0.1-7.6,1.5-14.4,6.2-20.6c2.8-3.7,5.5-8.4,2.9-13c-7.8-13.7-12.8-27.8-14.9-43.7c-1.4-10.5-8.2-18.5-19.1-23.6
		c-13.7-6.4-22.3-17.4-20.4-34.4c1.7-15.2-0.7-29.6-9.2-43c-6.7-10.6-5.9-23.8,1.8-32c20.3-21.6,28.5-45.9,25.7-75.2
		c-1.2-13.1,7.5-17.4,18-9.4c26.7,20.2,54.4,39.5,78.8,62.4c51,48,101.2,97,149.6,147.7c23.7,24.9,48.6,48.8,71.1,75.2
		c30.8,36.2,63,71.9,100.3,102.4c16.6,13.6,28.1,33.6,46.5,44.9c32.8,20.2,54.4,52.4,84.3,75.7c16.2,12.6,26.3,30.7,36.6,48.2
		c2.2,3.8,4.5,7,7.6,10.2c25.9,26.3,53.7,50.1,84.9,70c7.9,5,13.5,13.7,19.9,20.8c12.2,13.6,27.7,22.5,44,30.1
		c5.5,2.6,10.6,6,13.3,11.6c20.1,41.1,52.3,71.1,87.4,99.3c22.1,17.8,44,36.1,63.6,57.3c10.3,11.1,24.4,20,37.2,29.3
		c48.6,35.1,92.1,76.3,137.8,114.8c49.8,41.9,86.1,96.3,129.2,144.4c11.4,12.7,24,25.2,27.7,43.2c-29.3,0-58.7,0-88,0
		c8.9-31.9-2.6-59.8-16.9-87.2c-9.4-17.8-25.4-27.7-41.8-38.2c-21.7-13.9-41.2-31.3-61.7-47.1c-4.3-3.3-9-6.2-14.7-4.3
		c-1.7,0.6-4.1,4.4-3.8,4.9c6.4,8.6,2.4,22.4,14.8,28c11,5,18.8,13.1,17.9,26.3c-0.9,12.9-10.6,17.4-21.3,20.6
		c-3.2,0.9-6.2,2.7-9.4,3.4c-14.8,3.3-28.1,16.6-43.4,12.3c-22.8-6.4-40.6-0.8-57,14.6c-3.9,3.6-6.9,7.6-5.7,13
		c1.3,6.1,6.7,5.4,11.3,5.8c21.9,1.9,25.4,6.1,22.2,27.5c-1,6.9-2.9,13.6-4.3,20.4c-50.7,0-101.3,0-152,0c-7-55.9-4.4-112-2.4-167.9
		c1.2-32.9,2.6-64.4-20.1-91.5c-6.8-8.2-3.7-18.5,0-25.7c15-29.2,10.8-59.4,8.2-90c-0.9-10.3,0.6-20.9,1.6-31.3
		c1.3-12.8-2.5-23.1-15.2-26.9c-14.6-4.4-29.8-9.2-44.8-9.4c-14.2-0.2-25.9,8.9-33.2,22c-1.8,3.2-3,7.6-5.8,9.2
		c-23.4,13.8-4.2,28.4-1.9,43.1c2.5,16,12.7,29.2,13.9,46.1c0.8,11-5.9,23.6-1.3,30.7c11.3,17.3-2.7,14.8-10.8,19.9
		c-12.9,8.1-28.3,14.2-32.8,31.6c-1.4,5.5-7.3,7.5-12.8,8.2c-17.9,2.3-31.3,10.5-38,28c-1.6,4.3-4.9,7.4-10.1,6.4
		c-4.7-0.9-6.1-4.7-6.6-8.9c-0.5-3.6-2.2-7.6-1.3-10.8c12.6-44.8-7.4-91.6,8.6-136.4c3.6-10.1-0.8-21-7.9-29.9
		c-9.6-12.1-10.9-26.8-13.4-41.3c-1.5-8.8-3.3-17.7-5.6-26.3c-1.6-6.1-6-12.8-12-11.8c-14.9,2.5-24.9-7.9-37.4-11.6
		c-3.1-0.9-5.5-3.1-5.4-6.4c0.1-4.5,4.1-2.8,6.6-3.8c8.2-3.2,16.4-6.7,24.2-11c6.3-3.5,9.9-3.1,11.5,4.3c0.7,3.3,1.3,7.2,5.9,6.4
		c4.1-0.7,5.1-4.6,4.8-7.8c-0.7-7.5,2.6-10.9,9.8-12.1c5-0.9,8-4.7,9-9.7c1.8-9,6.4-16.7,10.8-24.5c5.5-9.6,6.4-20.6-2.1-27.5
		c-7.9-6.4-17.9-7.8-28.1,0.3c-18.8,15.1-39.6,27.8-58.1,43.2c-9.2,7.6-13.5,19.7-10.3,32.4c1.7,6.8-3,6.3-6.7,6.7
		c-35.7,3.3-71.4,6.8-107.2,9.2c-7.1,0.5-14.5-3.3-21.1-4.9c7.2-11.8,2.5-25.3,6.9-37.5c3.8-10.4,1.3-22.5,5.4-33.9
		c3.3-9.4,0-21.5-10.3-25.8c-19.8-8.3-40.2-15.9-61.1-20.9c-20.3-4.9-50.5,14-57.5,33.2c-2.7,7.3-7.4,11.2-15.2,12.5
		c-43.1,7.5-83.8-4.8-124.8-14.5c-5.1-1.2-9.6-4.4-11.6-8.9c-8.2-18.6-23.9-29.9-39.2-41.6c-11.9-9.1-16.2-21.7-19.3-35.9
		c-3.4-15.6-8.9-30.6-18.6-44.3c-15.4-21.6-22.6-46.3-14.1-72.6c7.1-21.8-4.5-43.3-29.4-51.3c-38.3-12.3-76.5-25-114.9-37.1
		c-17.5-5.5-29.8-16.1-38.5-32.4c-6.9-13.1-14.9-25.5-30.4-31.2c-36.4-13.6-72.3-28.6-108.8-42.1c-34-12.5-69.6-20.2-101.2-39.4
		c-26.5-16.1-30.3-24.1-17.9-52.3c0.8-1.8,2-3.9,1.7-5.7c-3.3-25.9,12.1-45.3,23.2-66.1c3.3-6.3,4-12.8,3.1-19.4
		c-2.8-20.4,7.4-34.4,20-49c11.1-12.9,12.3-31.2,16.2-47.6c6-25.6,11.3-50.9,27.1-73.7c9.2-13.3,10.8-31.9,16.2-48
		c10.1-29.8,26.5-58.1,29.1-89.7c1-12.1,7.4-15.5,12.9-22.8c16.4-22,10.7-50.1-10.9-67.8c-26-21.4-51.8-43-79.6-62.3
		c-15.2-10.6-23.8-28.6-40-39.6C77.5,50.6,64.6,49,52.7,43.7c-3.8-1.7-8.6-1.4-7.3-6.8c3.2-13-1.8-24.7-5.2-36.6
		C48.9,0.3,57.5,0.3,66.2,0.3z M603.2,900.3c-15.8,0-28.9,15.6-27.1,29.7c1.1,8.8,1.5,17.3-4.4,24.7c-19,23.8-13.5,50.4-6.8,76
		c2.8,10.8,11.2,19.7,26.5,11c18.8-10.7,33.3-27,53.2-36.4c13.1-6.2,19.8-34.1,15-44.3c-9.5-20.4-30.1-32.1-40.6-52
		C616.3,904.1,607.2,902.4,603.2,900.3z M840,1064c-1.7,8.9,4.3,14.9,11.1,21.5c16,15.5,41.1,16.7,54.8,35.4
		c12.9,17.4,28.9,17.7,47,9.8c4.5-2,9.3-3.6,14.2-4.7c10.6-2.4,10.2-7.9,4.7-15c-14.8-19.3-36.7-28.5-57.7-38
		c-10.4-4.7-17.2-5.8-13.8-20.2c1.8-7.7,11.3-20.8-6.2-27.3c-4.7-1.7-6.5-10.1-15.3-8.5C860,1020.3,840.3,1042.8,840,1064z
		 M1471.9,1512.6c-13.2,2.4-16.5,13.5-17.8,25.4c-1.1,10.6,14.2,35.7,22.7,35.9c14.3,0.4,10.1-13.8,14.7-21.1c1.2-2,2.4-4,3.4-6.1
		C1499.7,1536.5,1484.2,1512.2,1471.9,1512.6z M120.7,550.9c5.1-0.5,10.5-3.9,9.8-8.7c-0.9-5.8-5.6,0.6-8.6-0.1
		c-3.8-0.9-7.6-1.7-11.3-2.8c-1.9-0.5-3.3-4.7-5.4-1.4c-0.9,1.4-0.3,4.9,0.9,6.4C109.5,548.7,114.8,550,120.7,550.9z M747.9,871.9
		c0.9,3.4-1.1,9.8,2.9,9.3c5.6-0.8,3-7.7,3.8-11.9c0.5-2.7,0.5-7.6-3-7.1C746,862.8,749,868.5,747.9,871.9z M268.3,708.3
		c-0.6-3.3-2.5-5.3-5.8-5.6c-2.6-0.2-4.7,1-4.9,3.7c-0.3,3.9,2.5,5,5.7,5.2C265.5,711.8,267.9,711.6,268.3,708.3z"/>
	<path class="st5" d="M380.1,0.3c-0.6,7.7-6.5,10.2-12.5,10.8C352,12.5,351,22.8,356.1,33c16.8,33.6,33.3,67.8,65.2,90.6
		c6.3,4.5,12.3,9.7,15.4,16.8c12.2,28.2,42.9,43.4,51.5,74c1,3.5,2.8,6.9,3.3,10.5c2.1,15,11.6,22.2,23.7,31.3
		c37.6,28.1,83.5,44.4,113.8,83.2c28.3,36.2,65.1,64.6,96.6,97.8c34.5,36.4,64.9,76.9,101,111.6c40.7,39.2,71.8,86.6,112.2,125.1
		c42.3,40.3,82.6,82.6,124.9,122.9c26.3,25,52.4,50.2,71.5,81.7c8.9,14.8,22.9,24.9,36.8,34.7c36.5,25.5,73.7,50.2,109.4,76.8
		c15.3,11.4,27.9,26.6,41,40.6c7.1,7.6,16.2,11.7,24.8,16.5c36.2,20.4,70.8,43.8,110.6,57.5c10.6,3.6,16.5,5.4,16.8-10.6
		c0.3-16-1.6-29.3-10.3-43.2c-9.7-15.4,5-37,26.8-42.7c18.1-4.7,23.2-16.6,21.2-35.6c-3.1-29-17.8-53.4-27.6-79.7
		c-3.4-9-5.7-18.3-4-28.3c2.3-13.9,10.5-19.8,23.8-17.8c8.6,1.3,14.4-2.2,16.9-9.1c5-13.8,8.1-28.1,6.7-43
		c-1.1-11.8-7.6-18.1-19.1-21.2c-22-5.9-28.9-15.3-28.8-38.1c0-12,6.4-19.2,18.4-21.2c9.5-1.5,19.2-2.4,28.5-4.7
		c12.7-3,23.1-9.9,24.9-24c2.8-21.3,7.3-41.1-6.8-62.8c-10.2-15.7-6.6-38.6-2.8-58.6c4.5-23.1,1.5-46.7-4.5-68.2
		c-5-17.8-18.6-33.8-30.6-49c-20.7-26.3-39.9-52.5-35.4-88.6c1.6-12.4-3-24.4-7.2-34.8c-8.4-20.6,0.8-37.9,5.7-55.9
		c5.4-19.7,17.7-36.4,27-54.4c5-9.6,4.4-18.1,0.3-28.4c-9.6-24.4-10.5-48.9,5.2-72.1c9.9-14.7,7.1-34.5-4-48.7
		c-13.1-16.7-25.2-34.1-37.3-51.6c-2.3-3.3-2.5-8.1-3.7-12.2c110.6,0,221.3,0,331.9,0c1.7,15.5-2.7,30.7,9.2,46.2
		c6.5,8.4,11.4,27.8-3.9,40.6c-6.3,5.3-8.8,14.8-4.9,23.1c3.6,7.7,1.7,12.9-3,19c-16.2,21-8.7,58.9,14,72.9
		c7.9,4.9,16.1,9.6,23,15.8c14.3,12.9,12.8,25.4-5.4,31.8c-35.8,12.6-68,32.5-100,51.5c-24,14.3-45.4,35-63.7,57.7
		c-14.2,17.6-17.1,34.2-3.9,53c7.6,10.9,16.6,20.8,24.7,31.3c9.8,12.7,20.2,25.2,29.8,38c10.5,14.2,13.2,30.5-3,45.9
		c-5.5,5.3-10.1,15.7,0.2,26.2c13.7,13.9,14,33.9,10.7,51.8c-3.5,18.9-2.4,34.6,12.8,47.9c5.2,4.6,6.8,12.1,5,18.6
		c-4.3,15.2-2.2,30.1-0.8,45.3c1.5,16-7.7,29.8-13.2,44.1c-4,10.3-4.9,19.1,0.8,29.3c10.1,18.2,10.2,39.8,18.2,58.9
		c14.1,33.7,32.8,66.2,33.7,103.6c0.5,21.9,9.4,32.9,28.4,43.2c22.3,12.1,39.3,31.6,46.2,58c6.3,23.8,17.6,33.3,42,35.3
		c19.7,1.6,36.3,9.5,52.4,20.2c7.9,5.3,16.9,9.4,25.9,12.7c18.5,6.7,26,20.3,17.8,38.3c-20.6,45.4-44.2,89.1-80.3,124.6
		c-2.8,2.7-5.2,6.1-7.1,9.5c-14.7,25.6-29.7,30.9-59.3,26.8c-16.8-2.3-32.3-9-49.2-10.2c-3.3-0.2-7.2-0.8-5.2,3.9
		c6.9,16.3,11.7,33.7,30.6,42.2c14.7,6.6,25.9,17.4,32.9,33.2c6.9,15.4,19,27.7,34.1,36.6c-14-2.5-22.9-12.5-32.6-21.5
		c-2.5-2.3-4.5-7.1-8.5-5c-1.4,0.7-0.6,6.1-0.3,9.2c1.9,16.8,4.4,33.6,5.8,50.5c0.9,11.7-5.9,16.2-15.6,10
		c-20.5-13.1-46.1-17.2-62.4-38.2c-6.7-8.7-20.8-9.4-30-17.2c-17.6-15-25-35.8-33.7-55.9c-5.9-13.7-14.9-23.2-29.1-28.1
		c-10.7-3.7-19.3-10.5-25.6-19.9c-13.6-20-34.1-31.8-52.4-46.6c-41.4-33.4-94.5-47.3-133.8-83.4c-14.9-13.7-29.3-28-43.4-42.5
		c-21.4-22.1-48.6-34.6-75.8-46.9c-11.1-5-21.7-10.9-27.3-20.9c-20.6-37.1-57.3-55.6-89.5-79.4c-35.5-26.2-74.2-48.3-102.5-83.5
		c-29.6-36.7-69.5-62.6-103.2-95c-34.1-32.7-69.5-63.8-106.2-93.7c-11.2-9.1-17.9-23.8-26.7-35.8c-29.4-39.9-70.1-68-105.9-101.1
		c-45-41.5-86.1-86-124.9-133.4c-21.6-26.5-43.2-53-63.5-80.5c-4.5-6.1-11.1-9.9-18.5-11.1c-13.8-2.2-27.7-4.2-41.6-4.9
		c-14.9-0.8-19.9,7.5-13.1,21c9.1,17.9,20.9,34,34.7,48.6c10.9,11.5,19.2,24.7,25.6,39.1c2.5,5.5,2.8,11.2-2.1,15.7
		c-4.7,4.3-9.3,1-13.8-1c-7.3-3.1-12.7-8-17.4-14.4c-18.8-25.8-45.2-42.7-72-58.6c-16.5-9.8-26.9-43.3-16-63.5
		c17.7-32.8,9.3-65.2,0.6-97.7c-2.3-8.7-9.4-12.6-18.1-15.2c-31.3-9.5-56.5-27.2-72.4-56.6c-5.2-9.6-7.4-19.1,1.3-28.5
		c4.1-4.5,6.4-10.8,3.1-16.7c-11-19.7-21.4-40.4-43.4-50.5c-11.4-5.3-17.2-13-19.6-25.4c-3.2-16.3-8.6-32.1-13.1-48.1
		C324.1,0.3,352.1,0.3,380.1,0.3z M1488.3,1029.5c-4.4,0.8-3,3.6-1.6,5.1c19.5,20.7,36.8,43.4,59.1,61.4c2.6,2.1,6.9,3.1,9.1,0.1
		c2.6-3.6-1.6-6.1-3.9-7.9c-6.9-5.6-17.5-9.1-20.7-16.2c-8.2-17.7-22.3-28.7-36.9-39.8C1491.7,1031.1,1489.8,1030.4,1488.3,1029.5z
		 M1651.4,650.1c-2-7.9-5.5-14.2-15.7-14.1c-9.9,0.1-15.5,5-14.9,14.5c0.6,9.4,6.6,15.3,16.4,15.3
		C1646.8,665.8,1649.9,658.9,1651.4,650.1z"/>
	<path class="st3" d="M2559.5,606c-11.5,3-23.8,2.4-31.8,15.2c-5.2,8.3-13.3,5-18-3.3c-2.6-4.6-5.9-9.1-7.1-14.1
		c-5.1-21.6-30.8-23.8-39.6-44.2c-5.8-13.3-26.9-8.9-40.1-2.4c-20.1,9.9-47.3,6.7-61.1-10.6c-6.6-8.4-12.4-8.2-22.3-5.4
		c-14.8,4.1-30.7,6.1-46.1,5.9c-10.8-0.1-12.8-11.3-13.7-20.3c-1.3-14.1-1.4-28.4-2.8-42.5c-1-10-7.8-15.5-17.6-15.9
		c-15.7-0.7-19.7-6.9-13.5-21.9c10.5-25.4,9.7-53.5,17.5-79.6c1.6-5.2,2.1-13.3,8.8-12.8c7.1,0.5,5.6,8.9,6.5,14
		c3.7,20.4,18.8,33.7,38.7,33.2c5.4-0.1,7.2-4.1,8.3-8.5c7.6-30.7,2-60.2-8.7-89c-3-8-11.1-8.8-18.5-9.6
		c-14.3-1.6-25.9-6.4-28.5-22.8c-0.4-2.7-2.2-6.2-4.4-7.6c-18.6-11.3-13-32.9-21-48.7c-1.5-3,0.2-6.7,3.2-8.8c3.5-2.4,6.3,0,8.9,2.1
		c16.9,14.1,25.9-3.1,35-10.9c6.1-5.3-1.1-14.4-6.4-20.5c-3.3-3.7-7.5-7-9.6-11.3c-2.5-5.2-11.5-9.8-7.5-14.7
		c4.9-6.1,14.4-3.3,21.6-1.5c6.4,1.5,12.1,5.3,19.2,4.2c15.9-2.4,30.1-5,28.8-27.2c-1.5-25.6-12.4-41.6-33.4-43.9
		c-29.1-3.3-49.4,20.1-42.2,48.9c2.7,10.7,0.1,15.4-11.9,17.2c-14.3,2.2-20.5-0.3-24.3-15.9c-6.8-28.1-21.6-52-44.1-71.6
		c-12.3-10.7-5.3-27.7-5.6-42c-0.1-6.3,0.9-12.6,1.4-18.9c124.6,0,249.3,0.1,373.9-0.2c6.8,0,8.2,1.3,8.2,8.2
		C2559.4,207.5,2559.5,406.8,2559.5,606z M2320.8,502.3c-0.3-4.2,0-9.7-5.4-8.7c-6.1,1.1-15.3,4.4-14.7,10.1
		c0.6,6,8.1,15.9,12.5,15.9C2323.1,519.4,2317.4,508,2320.8,502.3z M2300.7,487.8c-4.1-1.5-5.3-2.2-6.5-2.2c-0.9,0-1.8,1-2.8,1.5
		c0.7,1,1.2,2.3,2.2,2.8C2294.3,490.2,2295.6,489.4,2300.7,487.8z"/>
	<path class="st1" d="M1459.8,1705.6c1.5-6.8,3.3-13.6,4.3-20.4c3.2-21.4-0.3-25.6-22.2-27.5c-4.6-0.4-10,0.4-11.3-5.8
		c-1.2-5.4,1.8-9.4,5.7-13c16.3-15.4,34.1-21.1,57-14.6c15.4,4.3,28.6-8.9,43.4-12.3c3.2-0.7,6.2-2.4,9.4-3.4
		c10.7-3.2,20.5-7.7,21.3-20.6c0.9-13.1-6.9-21.2-17.9-26.3c-12.3-5.6-8.4-19.5-14.8-28c-0.4-0.5,2.1-4.3,3.8-4.9
		c5.6-1.9,10.4,1.1,14.7,4.3c20.5,15.8,40,33.2,61.7,47.1c16.5,10.6,32.5,20.4,41.8,38.2c14.4,27.4,25.8,55.3,16.9,87.2
		C1602.4,1705.6,1531.1,1705.6,1459.8,1705.6z"/>
	<path class="st5" d="M838,0.3c1.9,10.1,5.1,20.2,5.3,30.3c0.2,9.1,1.2,22-10.7,24c-14.2,2.4-29.7,1.5-39.5-12.3
		c-8.9-12.6-8.9-27.4-9-42C802,0.3,820,0.3,838,0.3z"/>
	<path class="st4" d="M21.4,1409.7c4.8,19-2.1,31.1-21.2,36c0-3.3,0-6.7,0-10c10.1-5.9,10.1-18.6,0-26c0-5.3,0-10.7,0-16
		c4.3,1.4,8,3.6,10.4,7.6C10.8,1408.6,13.7,1412.3,21.4,1409.7z"/>
	<path class="st2" d="M0.2,1409.7c10.1,7.4,10.1,20.1,0,26C0.2,1427,0.2,1418.4,0.2,1409.7z"/>
	<path class="st5" d="M261.8,150.2c9.9-0.3,17.3,4.8,20.6,13.1c7.2,18.6,19.9,32.7,33.8,46.2c4.5,4.4,11.2,10.4,5.7,17.1
		c-6,7.4-13.2,1.8-19.6-1.7c-20.6-11.1-32.9-31.1-49-46.9c-5.7-5.6-6.7-13.8-3.9-21.5C251.2,150.9,256.7,150.5,261.8,150.2z"/>
	<path class="st5" d="M2303.6,96.8c8.8,0.1,25,25.9,20.7,33.4c-0.7,1.2-2.5,1.9-3.7,2.8c-5.8-12.2-23.6-2.2-29.2-16.7
		C2286,102.4,2288.6,96.7,2303.6,96.8z"/>
	<path class="st3" d="M1854.7,1368.5c8.6,7.1,17.8,13,24.7,20.9c5.8,6.7,14.6,11.7,16.1,21.8c-10.1-0.7-15.5-9.2-22.7-14.3
		c-7.2-5.1-12.8-12.4-18.9-19c-1.4-1.6-1.8-4.2-2.2-6.4C1851.5,1370.8,1853.1,1369.9,1854.7,1368.5z"/>
	<path class="st3" d="M1930.1,1447.2c0.7,4.1-0.7,5.6-3.6,5.2c-1.9-0.3-3.8-1.3-5.6-1.9c-10.8-3.7-15.1-12.4-17.1-22.6
		c-0.5-2.4,1.6-2.8,3.2-2C1916.9,1431.1,1924.8,1438.4,1930.1,1447.2z"/>
	<path class="st3" d="M2227,171.2c0.5,9,0.8,13.5,1.1,17.9c-1.1-0.1-3,0.2-3.2-0.2C2223.1,184.5,2222.9,180.1,2227,171.2z"/>
	<path class="st4" d="M239.8,996.8c-5.2,4.2-8.6,0.4-11.9-2.9c-9.8-9.9-22.6-16.7-32-26c-7.6-7.6-11.2-21.6-9-34.5
		c2.5-14.5,13.3-27.2,9.1-43.1c-0.2-0.7,2.4-3,2.8-2.8c14.4,8.2,31.6,8.8,44.3,23.3c20,22.7,21.6,48.4,20.7,75.6
		c-0.3,9.3-7.3,17.6-4.6,27.9c1,3.7-3,4.6-6,1.7c-4.4-4.2-8-8.9-8.8-15.3c9-4,8-10.9,5.1-18.3c1.9-4.6,2.9-9.3,0.6-14.1
		c-0.7-5-1.4-10-2-15.1c-2.7-24.1-17-39.7-37-51.5c-5.5-3.3-6.9-1.2-6.5,3.4c0.9,10-2.9,18.8-5.6,28.1c-4,13.6,0.3,24.8,12.1,32.9
		c0.6,0.7,1.1,1.5,1.7,2.2c3,3.2,6,6.3,9,9.5c1.5,1.5,3,2.9,4.5,4.4c1.9,1.6,3.8,3.2,5.7,4.8C234.6,990.2,237.2,993.5,239.8,996.8z"
		/>
	<path class="st4" d="M335.4,1255.2c-10.6-1.5-13.5-11.9-13.7-20.9c-0.1-6.7,0-21.9,9.8-18.8c11.5,3.6,29.9-0.6,33.8,17.2
		C367.2,1241,347.9,1255.4,335.4,1255.2z"/>
	<path class="st0" d="M249.6,982.4c2.8,7.4,3.8,14.2-5.1,18.3c-1.5-1.3-3.1-2.5-4.6-3.8c-2.6-3.3-5.2-6.7-7.8-10
		C237.9,985.4,243.7,983.9,249.6,982.4z"/>
	<path class="st4" d="M817.6,1277.4c-3.3-0.2-7-0.6-5.2-3.4c3.4-5.3,9.1-8.5,15.4-9.8c3.3-0.7,6.4,1.2,5.4,5
		C830.7,1277.8,822.2,1274.8,817.6,1277.4z"/>
	<path class="st3" d="M21.4,1409.7c-7.8,2.6-10.7-1.2-10.8-8.4C17.6,1399.7,21,1402.8,21.4,1409.7z"/>
	<path class="st5" d="M742.2,329c8.6-9.4,16.6-4,21.7,2.9c13.9,18.6,29.3,36.1,41.1,56.3c6.5,11.1,1.2,23.9,7,34.7
		c0.2,0.3-1.1,2-1.6,1.9c-5.1-0.7-5.2-5.3-6.6-8.9c0.2-6.4-2.7-10.9-8-14.1c-11.4-23.5-29.3-41.9-46.3-61.1
		C747,336.7,744.6,332.9,742.2,329z"/>
	<path class="st5" d="M792.2,413.3c-14-1.7-22.6-12.5-31.3-21.3c-10.4-10.5-18.2-23.7-27-35.7c-8.1-11-7.9-23.8,0.3-27.6
		c3.2,5.8,6.4,11.5,9.6,17.3c13.8,20.2,27.8,40.1,46.2,56.5C790.7,406.2,791.5,409.8,792.2,413.3z"/>
	<path class="st5" d="M1011.5,126.6c7.2,4.6,24.4-3.6,23.9,12.1c-0.3,10.2-10.5,20.2-24.1,19.1c-10-0.8-15.8-6.6-15.1-17.2
		C996.6,131.9,1000.4,126,1011.5,126.6z"/>
	<path class="st5" d="M870.1,315.9c-2.2,11-8.1,19.8-20.5,19.6c-10.4-0.1-14.9-9.2-14.8-17.9c0.1-11.1,8-17.3,19-17.4
		C863,300.2,869.2,305.2,870.1,315.9z"/>
	<path class="st1" d="M1208.4,814.5c-10.3-10.5-21.9-19.7-29-33c4-2.1,7.9-4.3,11.9-6.4c5.2,5,10.4,10.1,15.6,15.1
		C1207.6,798.3,1215.5,805.9,1208.4,814.5z"/>
	<path class="st4" d="M1208.4,814.5c7-8.6-0.9-16.2-1.5-24.2c10.3,6.7,9.7,20.4,18.1,28.4c-1.8,3.4-4.5,5.4-8.3,6
		C1213.9,821.2,1211.2,817.9,1208.4,814.5z"/>
	<path class="st0" d="M1216.7,824.6c3.8-0.6,6.6-2.6,8.3-6c6.2,7.3,11.7,15,13.9,25.9C1229.2,839.3,1222.1,832.9,1216.7,824.6z"/>
	<path class="st0" d="M792.2,413.3c-0.7-3.6-1.5-7.2-2.2-10.8c1.9-0.3,3.9-0.5,5.8-0.8c5.3,3.2,8.2,7.8,8,14.1
		C799.6,416.5,795.4,417.3,792.2,413.3z"/>
	<path class="st0" d="M743.8,346c-3.2-5.8-6.4-11.5-9.6-17.3c2.7,0.1,5.3,0.2,8,0.3c2.4,3.9,4.9,7.8,7.3,11.7
		C747.6,342.4,745.7,344.2,743.8,346z"/>
	<path class="st4" d="M1191.3,775.1c-4,2.1-7.9,4.3-11.9,6.4c-4.5-1.8-4.1-6.7-6.3-9.9c2.8-1.7,5.7-3.4,8.5-5.1
		C1184.9,769.4,1188.1,772.2,1191.3,775.1z"/>
	<path class="st0" d="M1181.6,766.5c-2.8,1.7-5.7,3.4-8.5,5.1c-4.1-2.5-9.5-6.9-5.4-10.5C1172.4,757,1177.9,762,1181.6,766.5z"/>
	<path class="st0" d="M1385.1,1275c0.3,16-6,21.1-21.9,13.4c-22.9-11.1-42.6-27.3-57.8-47.8c-10.9-14.7-1.1-48.7,15-57.9
		c5.3-3,8.3-0.3,10.5,3.9c3.2,6.2,6.5,12.5,8.6,19.1c3.6,10.9,9.8,18.3,21.1,21.9C1383.3,1234.8,1383.2,1254.7,1385.1,1275z"/>
	<path class="st4" d="M1612.2,1417.6c8.1-0.1,15.3,0.7,21.6-4.6c5.2-4.3,7.5,0.4,9.3,4.5c4.9,11.4,7.4,23.5,8.2,35.7
		c0.6,10-5,17.2-13.9,21c-9.1,3.9-15.6-0.5-21.4-7.8c-9.9-12.6-13.9-28.2-18.5-42.5C1593.7,1411.5,1608.2,1421.3,1612.2,1417.6z"/>
	<path class="st0" d="M2469.4,1073c0.5-7.7,2.3-16.7,8.1-13.6c8.7,4.7,25.2-1,25.6,16.1c0.2,13.2-6.4,20.8-20.1,20
		C2465.9,1094.6,2473.8,1079.4,2469.4,1073z"/>
	<path class="st0" d="M418,707.5c8.1,10.3,14.1,17.1,16.7,26c0.5,1.9-2.7,3.8-4.2,2.2c-6.2-6.2-12.5-12.6-14.9-21.4
		C415.1,712.9,416.8,710.8,418,707.5z"/>
	<path class="st3" d="M603.2,900.3c4.1,2.1,13.1,3.8,15.7,8.8c10.5,19.9,31,31.5,40.6,52c4.8,10.2-1.9,38.1-15,44.3
		c-19.9,9.4-34.4,25.7-53.2,36.4c-15.3,8.7-23.6-0.2-26.5-11c-6.7-25.6-12.2-52.2,6.8-76c5.9-7.4,5.5-15.9,4.4-24.7
		C574.2,915.9,587.4,900.3,603.2,900.3z"/>
	<path class="st3" d="M840,1064c0.3-21.2,20-43.7,38.8-47.1c8.9-1.6,10.6,6.8,15.3,8.5c17.5,6.4,8,19.5,6.2,27.3
		c-3.4,14.4,3.4,15.5,13.8,20.2c21,9.5,42.9,18.7,57.7,38c5.5,7.1,5.9,12.7-4.7,15c-4.8,1.1-9.6,2.7-14.2,4.7
		c-18.1,7.9-34.1,7.7-47-9.8c-13.7-18.6-38.8-19.9-54.8-35.4C844.2,1078.9,838.3,1072.9,840,1064z"/>
	<path class="st1" d="M1471.9,1512.6c12.3-0.4,27.8,23.9,23,34.2c-1,2.1-2.2,4.1-3.4,6.1c-4.6,7.3-0.4,21.5-14.7,21.1
		c-8.5-0.2-23.8-25.3-22.7-35.9C1455.3,1526.1,1458.6,1515,1471.9,1512.6z"/>
	<path class="st0" d="M120.7,550.9c-5.9-0.8-11.2-2.1-14.6-6.5c-1.2-1.5-1.8-5-0.9-6.4c2.2-3.3,3.5,0.8,5.4,1.4
		c3.7,1.1,7.6,1.8,11.3,2.8c3.1,0.8,7.8-5.7,8.6,0.1C131.2,547,125.8,550.3,120.7,550.9z"/>
	<path class="st3" d="M747.9,871.9c1.1-3.4-1.9-9.1,3.7-9.8c3.5-0.4,3.5,4.5,3,7.1c-0.8,4.2,1.8,11.1-3.8,11.9
		C746.8,881.7,748.8,875.3,747.9,871.9z"/>
	<path class="st3" d="M268.3,708.3c-0.3,3.3-2.7,3.5-5.1,3.3c-3.2-0.2-6-1.3-5.7-5.2c0.2-2.7,2.4-3.9,4.9-3.7
		C265.8,703,267.7,705.1,268.3,708.3z"/>
	<path class="st0" d="M1488.3,1029.5c1.6,0.8,3.5,1.6,5,2.8c14.7,11,28.7,22,36.9,39.8c3.3,7.1,13.8,10.6,20.7,16.2
		c2.3,1.8,6.5,4.3,3.9,7.9c-2.2,3-6.5,2-9.1-0.1c-22.3-17.9-39.7-40.7-59.1-61.4C1485.3,1033.1,1483.9,1030.3,1488.3,1029.5z"/>
	<path class="st0" d="M1651.4,650.1c-1.5,8.8-4.6,15.7-14.2,15.7c-9.8,0-15.8-5.9-16.4-15.3c-0.6-9.6,4.9-14.4,14.9-14.5
		C1645.9,635.9,1649.4,642.2,1651.4,650.1z"/>
	<path class="st0" d="M2320.8,502.3c-3.4,5.7,2.3,17.1-7.7,17.2c-4.4,0.1-11.9-9.9-12.5-15.9c-0.6-5.7,8.7-9,14.7-10.1
		C2320.8,492.6,2320.5,498.1,2320.8,502.3z"/>
	<path class="st0" d="M2300.7,487.8c-5.1,1.6-6.4,2.4-7.1,2c-1-0.5-1.5-1.8-2.2-2.8c0.9-0.5,1.8-1.5,2.8-1.5
		C2295.4,485.6,2296.6,486.4,2300.7,487.8z"/>
	<path class="st5" d="M211.2,966c-11.8-8.1-16.1-19.3-12.1-32.9c2.8-9.2,6.5-18.1,5.6-28.1c-0.4-4.6,1-6.6,6.5-3.4
		c20,11.9,34.3,27.5,37,51.5c-13.2,1.7-19-15.9-32.8-12.7c0.2-2,0.4-3.9,0.5-5.9c0.3-3.2,0.5-6.4,0.8-9.6c0.5-4.6-1.8-4.8-4.4-2.2
		c-4.5,4.6-7.6,9.9-5.3,16.7c0.2,0.6,0.8,1,1.2,1.5C205.3,949.9,215.8,957,211.2,966z"/>
	<path class="st2" d="M215.4,940.5c13.8-3.2,19.5,14.4,32.8,12.7c0.7,5,1.4,10,2,15c-4.9,2.6-15.4-4.8-13.6-0.6
		c5.8,13.5-5.8,10.6-10.2,14.4c-1.5-1.5-3-2.9-4.5-4.4c0.4-6.4-4.2-8.1-9-9.5c-0.6-0.7-1.1-1.5-1.7-2.2c4.6-9-5.9-16.1-2.9-24.9
		C210.6,940.9,213,940.7,215.4,940.5z"/>
	<path class="st5" d="M226.4,982.1c4.3-3.8,15.9-1,10.2-14.4c-1.8-4.2,8.7,3.2,13.6,0.6c2.3,4.8,1.3,9.5-0.6,14.1
		c-5.8,1.5-11.7,3-17.5,4.5C230.2,985.3,228.3,983.7,226.4,982.1z"/>
	<path class="st5" d="M212.9,968.2c4.8,1.4,9.4,3.1,9,9.5C218.9,974.5,215.9,971.4,212.9,968.2z"/>
	<path class="st3" d="M743.8,346c1.9-1.8,3.8-3.6,5.7-5.4c17,19.2,35,37.7,46.3,61.1c-1.9,0.3-3.9,0.5-5.8,0.8
		C771.6,386.1,757.5,366.2,743.8,346z"/>
	<path class="st3" d="M215.4,940.5c-2.4,0.2-4.7,0.4-7.1,0.6c-0.4-0.5-1-1-1.2-1.5c-2.3-6.8,0.8-12.2,5.3-16.7
		c2.5-2.6,4.8-2.3,4.4,2.2c-0.3,3.2-0.6,6.4-0.8,9.6C215.7,936.6,215.5,938.6,215.4,940.5z"/>
</g>
</svg>
